<svg version="1.1" xmlns="http://www.w3.org/2000/svg" xmlns:xlink="http://www.w3.org/1999/xlink" width="500" height="700"><g fill="none" fill-rule="nonzero" stroke="none" stroke-width="none" stroke-linecap="butt" stroke-linejoin="miter" stroke-miterlimit="10" stroke-dasharray="" stroke-dashoffset="0" font-family="none" font-weight="none" font-size="none" text-anchor="none" style="mix-blend-mode: normal"><g stroke-width="1"><path d="M229.74629,298.33053c3.01272,2.30126 6.02544,4.60253 8.30795,7.44024c2.28251,2.83771 3.83481,6.21187 5.48571,10.3001c1.6509,4.08823 3.4004,8.89053 4.61351,13.16168c1.21311,4.27115 1.88982,8.01115 1.65427,11.05104c-0.23555,3.03989 -1.38335,5.37967 -1.08811,9.35726c0.29524,3.97759 2.03351,9.59301 2.19182,13.92755c0.15831,4.33455 -1.26335,7.38823 -2.99867,10.18265c-1.73532,2.79442 -3.78432,5.32957 -6.37325,7.40976c-2.58893,2.08019 -5.7178,3.70541 -7.75445,6.54013c-2.03665,2.83472 -2.98109,6.87894 -5.02786,9.95902c-2.04677,3.08008 -5.19587,5.19601 -8.01152,7.51482c-2.81564,2.31881 -5.29783,4.8405 -9.00457,6.28205c-3.70674,1.44154 -8.63805,1.80294 -11.66924,3.04571c-3.03119,1.24277 -4.16226,3.36691 -6.42819,4.76165c-2.26593,1.39474 -5.66672,2.06009 -9.68835,1.62848c-4.02163,-0.43161 -8.6641,-1.96019 -12.73063,-3.74494c-4.06653,-1.78474 -7.55713,-3.82566 -10.06433,-4.74753c-2.5072,-0.92187 -4.03099,-0.7247 -6.47596,-2.11454c-2.44497,-1.38984 -5.81112,-4.3667 -9.48858,-7.17071c-3.67746,-2.80401 -7.66623,-5.43517 -10.59241,-7.70131c-2.92618,-2.26614 -4.78978,-4.16727 -6.29376,-6.16456c-1.50398,-1.99729 -2.64835,-4.09075 -4.14939,-7.28791c-1.50104,-3.19716 -3.35875,-7.49803 -3.66383,-10.16543c-0.30508,-2.6674 0.94248,-3.70132 -0.21302,-8.56614c-1.1555,-4.86482 -4.71405,-13.56054 -5.06331,-15.09701c-0.34926,-1.53647 2.51077,4.08632 2.64755,2.72064c0.13678,-1.36568 -2.4497,-9.71983 -2.59787,-14.54008c-0.14817,-4.82026 2.14197,-6.10662 3.63484,-8.58174c1.49287,-2.47512 2.18846,-6.13899 2.84687,-9.86448c0.65841,-3.72549 1.27963,-7.5126 2.83288,-10.60691c1.55324,-3.09431 4.03851,-5.49581 6.70118,-8.02543c2.66267,-2.52961 5.50275,-5.18733 8.4835,-7.47361c2.98075,-2.28627 6.10216,-4.20109 9.84312,-5.3423c3.74096,-1.1412 8.10146,-1.50879 12.46196,-1.87637c4.3605,-0.36759 5.71186,-3.23519 7.06323,-6.1028" fill="none" stroke="#000000"></path><g><path d="M182.65704,375.80024c-0.06746,-0.52711 0.33017,-1.01623 0.79132,-0.98383c0.46115,0.0324 0.98582,0.58631 1.05623,1.11363c0.07041,0.52731 -0.31344,1.02802 -0.78042,0.99527c-0.46698,-0.03275 -0.99967,-0.59796 -1.06713,-1.12507z" fill="#000000" stroke="none"></path><path d="M202.12887,390.80339c0.04327,-0.50082 0.50853,-1.07232 0.93342,-1.15034c0.42489,-0.07803 0.80941,0.33742 0.76885,0.83774c-0.04056,0.50032 -0.5062,1.08551 -0.93653,1.16461c-0.43034,0.0791 -0.80901,-0.35119 -0.76574,-0.85201z" fill="#000000" stroke="none"></path><path d="M177.45283,408.07023c0.06008,-0.48128 0.58196,-0.84512 1.0436,-0.72992c0.46165,0.1152 0.86306,0.70944 0.80593,1.19145c-0.05713,0.48201 -0.5728,0.8518 -1.04032,0.73516c-0.46753,-0.11664 -0.86929,-0.71541 -0.80921,-1.19669z" fill="#000000" stroke="none"></path><path d="M197.58338,380.77753c-0.02682,-0.48237 0.3857,-1.01441 0.83357,-1.06466c0.44787,-0.05024 0.9311,0.38132 0.96078,0.86337c0.02968,0.48205 -0.39418,1.0146 -0.84786,1.06549c-0.45368,0.05089 -0.91968,-0.38183 -0.9465,-0.8642z" fill="#000000" stroke="none"></path><path d="M188.03072,398.40827c0.04511,-0.51896 0.50874,-1.05066 0.92823,-1.07502c0.4195,-0.02435 0.79486,0.45865 0.75243,0.97746c-0.04243,0.5188 -0.50266,1.07341 -0.92751,1.0982c-0.42485,0.02479 -0.79826,-0.48168 -0.75315,-1.00064z" fill="#000000" stroke="none"></path><path d="M176.16948,386.10593c-0.02969,-0.49605 0.41923,-0.90869 0.90355,-0.82528c0.48431,0.08341 1.00402,0.66288 1.0368,1.15946c0.03278,0.49659 -0.42136,0.91029 -0.91191,0.82581c-0.49055,-0.08448 -0.99875,-0.66395 -1.02844,-1.16z" fill="#000000" stroke="none"></path><path d="M194.28135,403.36148c0.04726,-0.52682 0.51194,-1.1268 0.93182,-1.19938c0.41988,-0.07258 0.79498,0.38225 0.75039,0.90861c-0.04458,0.52636 -0.50884,1.12424 -0.9341,1.19773c-0.42526,0.0735 -0.79538,-0.38014 -0.74812,-0.90696z" fill="#000000" stroke="none"></path><path d="M184.10159,418.79376c-0.00599,-0.38669 0.47417,-0.77317 0.9503,-0.77839c0.47613,-0.00522 0.94823,0.37082 0.95726,0.75747c0.00903,0.38666 -0.445,0.78393 -0.92708,0.78928c-0.48209,0.00535 -0.97449,-0.38167 -0.98048,-0.76836z" fill="#000000" stroke="none"></path><path d="M181.37308,389.35133c-0.00072,-0.50365 0.4495,-0.94695 0.90444,-0.89474c0.45494,0.0522 0.91459,0.59991 0.91822,1.10389c0.00363,0.50398 -0.44876,0.96424 -0.90954,0.91146c-0.46078,-0.05278 -0.9124,-0.61696 -0.91312,-1.12061z" fill="#000000" stroke="none"></path><path d="M198.61483,405.09338c0.04449,-0.51384 0.514,-1.10977 0.938,-1.18621c0.424,-0.07644 0.80248,0.36663 0.7607,0.87998c-0.04179,0.51335 -0.50384,1.09699 -0.93323,1.17434c-0.42939,0.07735 -0.80996,-0.35427 -0.76546,-0.86811z" fill="#000000" stroke="none"></path><path d="M190.20631,378.44006c-0.05405,-0.50287 0.32305,-1.02857 0.75913,-1.05597c0.43609,-0.0274 0.93117,0.4435 0.98801,0.94619c0.05684,0.5027 -0.32457,1.03719 -0.76627,1.06499c-0.4417,0.0278 -0.92682,-0.45234 -0.98087,-0.95521z" fill="#000000" stroke="none"></path><path d="M208.73457,391.8107c0.05219,-0.49414 0.53044,-1.07501 0.9598,-1.16698c0.42937,-0.09197 0.80985,0.30497 0.76041,0.79852c-0.04944,0.49355 -0.52881,1.08373 -0.96369,1.17692c-0.43488,0.0932 -0.80871,-0.31433 -0.75652,-0.80847z" fill="#000000" stroke="none"></path><path d="M192.42619,383.78514c-0.02336,-0.49935 0.37425,-1.04462 0.8045,-1.09494c0.43025,-0.05032 0.89313,0.39429 0.91924,0.89332c0.02611,0.49903 -0.38455,1.05247 -0.82038,1.10348c-0.43583,0.05102 -0.88,-0.40251 -0.90336,-0.90186z" fill="#000000" stroke="none"></path><path d="M182.58156,400.5671c0.04698,-0.50861 0.53476,-0.94912 0.97343,-0.89387c0.43867,0.05525 0.82823,0.60624 0.78406,1.11521c-0.04418,0.50896 -0.52209,0.97589 -0.96633,0.92008c-0.44424,-0.05581 -0.83814,-0.63281 -0.79116,-1.14142z" fill="#000000" stroke="none"></path><path d="M199.99664,414.71407c-0.02591,-0.39854 0.38261,-0.87552 0.81267,-0.94814c0.43006,-0.07262 0.88165,0.25912 0.91031,0.6572c0.02866,0.39808 -0.3656,0.8625 -0.80109,0.93598c-0.43549,0.07348 -0.89597,-0.2465 -0.92189,-0.64504z" fill="#000000" stroke="none"></path><path d="M197.01105,390.43615c0.03035,-0.50543 0.48194,-1.07746 0.91074,-1.14687c0.4288,-0.06941 0.83481,0.36379 0.8072,0.86878c-0.02761,0.50499 -0.48883,1.08176 -0.92318,1.15209c-0.43435,0.07033 -0.82511,-0.36857 -0.79476,-0.87401z" fill="#000000" stroke="none"></path><path d="M184.81125,396.37793c0.30911,-4.7093 3.7735,-9.2328 7.13789,-9.56743c3.36439,-0.33463 6.62877,3.5196 6.34116,8.22676c-0.28761,4.70717 -4.12721,10.26726 -7.53679,10.61194c-3.40959,0.34468 -6.25136,-4.56197 -5.94226,-9.27128z" fill="#e5e5e5" stroke="#000000"></path><path d="M172.27562,393.93676c0.27357,-6.40162 1.94621,-11.99922 5.1406,-16.05151c3.19439,-4.05228 7.91053,-6.55925 13.14355,-6.6411c5.23302,-0.08185 10.98291,2.26142 14.61433,6.06041c3.63142,3.79899 5.14436,9.0537 4.60334,15.37118c-0.54102,6.31748 -3.13602,13.69774 -6.59361,18.67599c-3.4576,4.97825 -7.7778,7.55451 -12.75161,7.71613c-4.97381,0.16163 -10.60123,-2.09138 -13.9615,-6.78823c-3.36027,-4.69685 -4.46869,-11.94125 -4.19511,-18.34288z" fill="none" stroke="#000000"></path></g></g><g fill="none" stroke-width="0.5"><path d="M230.559,300.27948c1.79899,1.05019 3.59798,2.10037 6.1895,5.0573c2.59152,2.95692 5.97558,7.82058 8.4326,11.54375c2.45702,3.72317 3.987,6.30586 4.12325,10.47108c0.13625,4.16523 -1.12122,9.91299 -1.33958,13.9545c-0.21836,4.04151 0.6024,6.37675 1.42058,9.79922c0.81818,3.42247 1.63377,7.93217 1.6636,11.64474c0.02983,3.71258 -0.7261,6.62803 -1.77257,9.70308c-1.04647,3.07505 -2.3835,6.3097 -5.41437,8.8627c-3.03087,2.55301 -7.7556,4.42437 -10.18721,7.08098c-2.43161,2.6566 -2.57012,6.09844 -4.0705,8.69212c-1.50038,2.59369 -4.36263,4.33923 -8.00425,7.14841c-3.64162,2.80918 -8.06262,6.68201 -11.55795,7.86994c-3.49533,1.18793 -6.06498,-0.30904 -8.90648,0.45369c-2.84151,0.76273 -5.95487,3.78515 -8.6712,6.05876c-2.71633,2.2736 -5.03564,3.79839 -8.34765,3.3888c-3.31202,-0.40959 -7.61675,-2.75355 -11.8732,-5.18194c-4.25645,-2.42839 -8.46462,-4.94122 -11.3165,-5.92047c-2.85188,-0.97925 -4.34749,-0.42494 -6.50571,-1.83238c-2.15823,-1.40744 -4.97908,-4.77665 -8.66206,-7.45518c-3.68298,-2.67854 -8.22808,-4.66641 -11.34562,-6.23956c-3.11754,-1.57315 -4.80751,-2.73156 -5.67054,-5.10176c-0.86302,-2.37019 -0.8991,-5.95217 -3.09486,-9.3438c-2.19576,-3.39164 -6.55122,-6.59295 -7.37028,-8.62089c-0.81906,-2.02795 1.89827,-2.88254 1.54318,-7.69361c-0.3551,-4.81108 -3.78262,-13.57865 -4.14761,-15.3749c-0.36499,-1.79625 2.33256,3.37881 2.56783,1.37137c0.23527,-2.00744 -1.99172,-11.19739 -1.80475,-16.09974c0.18697,-4.90236 2.78792,-5.51712 3.51815,-7.97608c0.73023,-2.45896 -0.41024,-6.76212 -0.03765,-10.68496c0.37259,-3.92285 2.25825,-7.46538 4.96229,-9.99374c2.70404,-2.52836 6.22646,-4.04253 8.28202,-5.90935c2.05557,-1.86681 2.64428,-4.08627 4.98084,-6.84358c2.33656,-2.75731 6.42097,-6.05249 10.80509,-7.56537c4.38412,-1.51288 9.06795,-1.24345 13.75179,-0.97403c4.68383,0.26942 5.50331,-2.59299 6.32278,-5.4554" stroke="#000000"></path><g><path d="M182.99015,375.04066c-0.04805,-0.68059 0.5022,-1.22594 1.04492,-1.09579c0.54272,0.13016 1.07791,0.93582 1.12942,1.61724c0.05152,0.68142 -0.38063,1.2386 -0.92965,1.10685c-0.54902,-0.13176 -1.19664,-0.94771 -1.24469,-1.6283z" stroke="none"></path><path d="M203.74073,393.11955c0.03937,-0.42503 0.37543,-0.87543 0.69256,-0.87956c0.31713,-0.00413 0.61532,0.43801 0.57798,0.86301c-0.03734,0.42501 -0.41022,0.83288 -0.73162,0.83683c-0.3214,0.00395 -0.57829,-0.39525 -0.53892,-0.82028z" stroke="none"></path><path d="M177.0478,407.15777c0.13038,-0.5261 0.70331,-1.0126 1.14385,-0.97101c0.44054,0.04158 0.74867,0.61125 0.62111,1.13761c-0.12756,0.52637 -0.69083,1.00944 -1.13696,0.9673c-0.44613,-0.04214 -0.75838,-0.6078 -0.628,-1.1339z" stroke="none"></path><path d="M198.36007,378.39168c-0.03144,-0.60183 0.40524,-1.09952 0.77278,-1.05326c0.36754,0.04626 0.66594,0.63645 0.69972,1.23858c0.03378,0.60213 -0.19705,1.2162 -0.56815,1.17c-0.3711,-0.0462 -0.87291,-0.75348 -0.90435,-1.35532z" stroke="none"></path><path d="M185.64708,399.59916c0.21294,-0.60741 1.05085,-1.35035 1.5976,-1.38324c0.54674,-0.03289 0.80232,0.64428 0.59287,1.25148c-0.20945,0.6072 -0.88392,1.14445 -1.43676,1.17661c-0.55284,0.03217 -0.96665,-0.43744 -0.7537,-1.04486z" stroke="none"></path><path d="M176.80041,384.81825c0.25281,-0.50966 1.00167,-0.90604 1.41936,-0.83323c0.41769,0.07282 0.50422,0.61484 0.25408,1.12497c-0.25014,0.51013 -0.83695,0.98835 -1.2591,0.91506c-0.42215,-0.0733 -0.66716,-0.69714 -0.41435,-1.2068z" stroke="none"></path><path d="M193.20029,403.06133c-0.19019,-0.24858 -0.04897,-0.55106 0.21452,-0.521c0.26349,0.03005 0.64924,0.39263 0.84111,0.64141c0.19187,0.24877 0.18986,0.38373 -0.07623,0.35236c-0.26609,-0.03137 -0.78922,-0.22418 -0.97941,-0.47276z" stroke="none"></path><path d="M184.02483,420.39144c-0.05337,-0.32434 0.22041,-0.76687 0.50273,-0.92535c0.28233,-0.15848 0.5732,-0.03291 0.62838,0.29042c0.05518,0.32333 -0.12534,0.84443 -0.41077,1.00537c-0.28543,0.16095 -0.66697,-0.0461 -0.72035,-0.37044z" stroke="none"></path><path d="M180.18215,388.83328c-0.01658,-0.66555 0.42875,-1.27973 0.90543,-1.28868c0.47668,-0.00895 0.98471,0.58734 1.00434,1.25284c0.01963,0.6655 -0.44915,1.40021 -0.93207,1.40994c-0.48292,0.00973 -0.96113,-0.70854 -0.97771,-1.3741z" stroke="none"></path><path d="M197.80538,404.5771c-0.18618,-0.29104 0.07558,-0.65478 0.58213,-0.69859c0.50655,-0.04381 1.25789,0.2323 1.44731,0.52306c0.18942,0.29076 -0.18308,0.59618 -0.69674,0.64023c-0.51366,0.04405 -1.14652,-0.17366 -1.3327,-0.4647z" stroke="none"></path><path d="M190.19708,377.59239c-0.04649,-0.32896 0.1158,-0.63194 0.43495,-0.74956c0.31915,-0.11762 0.79517,-0.04988 0.8437,0.27834c0.04853,0.32821 -0.33043,0.91689 -0.65488,1.03761c-0.32445,0.12071 -0.57729,-0.23742 -0.62378,-0.56638z" stroke="none"></path><path d="M209.90756,394.50574c-0.05444,-0.68355 0.41099,-1.52488 0.88509,-1.65883c0.4741,-0.13395 0.95687,0.43946 1.01434,1.12216c0.05747,0.6827 -0.31037,1.47467 -0.79,1.61007c-0.47963,0.1354 -1.05499,-0.38984 -1.10943,-1.07339z" stroke="none"></path><path d="M191.63755,382.9842c-0.06829,-0.77732 0.38979,-1.66105 0.94463,-1.80356c0.55483,-0.14251 1.20642,0.45619 1.27826,1.2326c0.07183,0.77641 -0.43609,1.73053 -0.99831,1.87526c-0.56222,0.14473 -1.15629,-0.52698 -1.22457,-1.3043z" stroke="none"></path><path d="M182.43452,400.35088c0.15296,-0.45577 0.42319,-0.81593 0.5188,-0.66605c0.09561,0.14988 0.01659,0.80982 -0.13576,1.26654c-0.15235,0.45673 -0.37803,0.71024 -0.47462,0.55784c-0.09659,-0.1524 -0.06139,-0.70257 0.09157,-1.15834z" stroke="none"></path><path d="M201.16078,412.77128c-0.19806,-0.38825 0.03591,-0.85943 0.45355,-0.90861c0.41764,-0.04917 1.01895,0.32366 1.21968,0.7116c0.20072,0.38794 0.00086,0.79098 -0.42195,0.8404c-0.4228,0.04942 -1.05323,-0.25514 -1.25128,-0.64339z" stroke="none"></path><path d="M198.92011,391.50084c0.04368,-0.3995 0.53434,-0.75449 0.99252,-0.69054c0.45818,0.06395 0.88389,0.54685 0.84314,0.94676c-0.04075,0.39991 -0.54795,0.71683 -1.0121,0.65185c-0.46415,-0.06498 -0.86724,-0.50857 -0.82356,-0.90807z" stroke="none"></path><path d="M184.27746,396.61193c0.19944,-4.21408 4.05713,-9.04069 7.49652,-9.48659c3.4394,-0.4459 6.46051,3.48889 6.28304,7.70012c-0.17747,4.21123 -3.55351,8.6989 -7.0343,9.14863c-3.4808,0.44974 -6.94471,-3.14809 -6.74526,-7.36217z" stroke="#000000"></path><path d="M170.54345,392.5931c0.50713,-6.58061 3.70147,-11.92247 7.6776,-15.23806c3.97612,-3.31559 8.73403,-4.60491 12.83743,-4.74902c4.1034,-0.1441 7.55228,0.85701 11.48375,5.17511c3.93146,4.3181 8.3455,11.95319 8.8264,17.86772c0.4809,5.91454 -2.97133,10.10852 -7.59878,14.25764c-4.62745,4.14912 -10.43012,8.25337 -15.53206,9.05435c-5.10194,0.80099 -9.50316,-1.70128 -12.78777,-6.83773c-3.2846,-5.13645 -5.4137,-12.9494 -4.90656,-19.53001z" stroke="#000000"></path></g></g><g stroke-width="1"><path d="M229.11505,300.03953l6.64525,8.11583l5.94909,9.71767l6.39448,12.36145l1.81608,9.83095l-1.65453,8.19997l2.34821,13.7953l-2.05026,10.75182l-5.0906,8.78458l-6.86111,7.76489l-4.73985,10.29192l-7.83661,7.24068l-9.01999,5.72868l-12.63876,1.39662l-8.03534,4.90675l-10.43623,1.06925l-12.80374,-3.02119l-11.17282,-3.39036l-7.1937,-1.61872l-10.19092,-6.94038l-8.99359,-8.10994l-5.1655,-6.63608l-4.85924,-8.62782l-5.23933,-11.2063l0.10826,-7.90662l-3.45142,-13.30593l2.467,2.467l-2.48001,-13.9271l4.08246,-8.71962l4.43475,-9.44043l4.53794,-10.08806l6.48087,-8.5509l6.58442,-8.49287l9.54765,-5.20102l12.95678,-1.0786l7.46915,-5.47293" fill="none" stroke="#000000"></path><g><path d="M181.41149,373.65542c0,-0.55228 0.44772,-1 1,-1c0.55228,0 1,0.44772 1,1c0,0.55228 -0.44772,1 -1,1c-0.55228,0 -1,-0.44772 -1,-1z" fill="#000000" stroke="none"></path><path d="M202.94659,390.02148c0,-0.55228 0.44772,-1 1,-1c0.55228,0 1,0.44772 1,1c0,0.55228 -0.44772,1 -1,1c-0.55228,0 -1,-0.44772 -1,-1z" fill="#000000" stroke="none"></path><path d="M176.02772,406.38755c0,-0.55228 0.44772,-1 1,-1c0.55228,0 1,0.44772 1,1c0,0.55228 -0.44772,1 -1,1c-0.55228,0 -1,-0.44772 -1,-1z" fill="#000000" stroke="none"></path><path d="M197.56281,379.11077c0,-0.55228 0.44772,-1 1,-1c0.55228,0 1,0.44772 1,1c0,0.55228 -0.44772,1 -1,1c-0.55228,0 -1,-0.44772 -1,-1z" fill="#000000" stroke="none"></path><path d="M186.79527,395.47684c0,-0.55228 0.44772,-1 1,-1c0.55228,0 1,0.44772 1,1c0,0.55228 -0.44772,1 -1,1c-0.55228,0 -1,-0.44772 -1,-1z" fill="#000000" stroke="none"></path><path d="M173.33583,384.56613c0,-0.55228 0.44772,-1 1,-1c0.55228,0 1,0.44772 1,1c0,0.55228 -0.44772,1 -1,1c-0.55228,0 -1,-0.44772 -1,-1z" fill="#000000" stroke="none"></path><path d="M194.87093,400.93219c0,-0.55228 0.44772,-1 1,-1c0.55228,0 1,0.44772 1,1c0,0.55228 -0.44772,1 -1,1c-0.55228,0 -1,-0.44772 -1,-1z" fill="#000000" stroke="none"></path><path d="M184.10338,417.29826c0,-0.55228 0.44772,-1 1,-1c0.55228,0 1,0.44772 1,1c0,0.55228 -0.44772,1 -1,1c-0.55228,0 -1,-0.44772 -1,-1z" fill="#000000" stroke="none"></path><path d="M178.7196,386.99073c0,-0.55228 0.44772,-1 1,-1c0.55228,0 1,0.44772 1,1c0,0.55228 -0.44772,1 -1,1c-0.55228,0 -1,-0.44772 -1,-1z" fill="#000000" stroke="none"></path><path d="M200.2547,403.3568c0,-0.55228 0.44772,-1 1,-1c0.55228,0 1,0.44772 1,1c0,0.55228 -0.44772,1 -1,1c-0.55228,0 -1,-0.44772 -1,-1z" fill="#000000" stroke="none"></path><path d="M189.48715,376.08002c0,-0.55228 0.44772,-1 1,-1c0.55228,0 1,0.44772 1,1c0,0.55228 -0.44772,1 -1,1c-0.55228,0 -1,-0.44772 -1,-1z" fill="#000000" stroke="none"></path><path d="M211.02225,392.44609c0,-0.55228 0.44772,-1 1,-1c0.55228,0 1,0.44772 1,1c0,0.55228 -0.44772,1 -1,1c-0.55228,0 -1,-0.44772 -1,-1z" fill="#000000" stroke="none"></path><path d="M191.50607,381.53537c0,-0.55228 0.44772,-1 1,-1c0.55228,0 1,0.44772 1,1c0,0.55228 -0.44772,1 -1,1c-0.55228,0 -1,-0.44772 -1,-1z" fill="#000000" stroke="none"></path><path d="M180.73852,397.90144c0,-0.55228 0.44772,-1 1,-1c0.55228,0 1,0.44772 1,1c0,0.55228 -0.44772,1 -1,1c-0.55228,0 -1,-0.44772 -1,-1z" fill="#000000" stroke="none"></path><path d="M202.27362,414.26751c0,-0.55228 0.44772,-1 1,-1c0.55228,0 1,0.44772 1,1c0,0.55228 -0.44772,1 -1,1c-0.55228,0 -1,-0.44772 -1,-1z" fill="#000000" stroke="none"></path><path d="M196.88984,388.80918c0,-0.55228 0.44772,-1 1,-1c0.55228,0 1,0.44772 1,1c0,0.55228 -0.44772,1 -1,1c-0.55228,0 -1,-0.44772 -1,-1z" fill="#000000" stroke="none"></path><path d="M182.85515,393.56761c0,-5.02277 3.57185,-9.09453 7.97795,-9.09453c4.4061,0 7.97795,4.07176 7.97795,9.09453c0,5.02277 -3.57185,9.09453 -7.97795,9.09453c-4.4061,0 -7.97795,-4.07176 -7.97795,-9.09453z" fill="#e5e5e5" stroke="#000000"></path><path d="M169.298,393.56761c0,-13.55809 9.64159,-24.5491 21.5351,-24.5491c11.89351,0 21.5351,10.99101 21.5351,24.5491c0,13.55809 -9.64159,24.5491 -21.5351,24.5491c-11.89351,0 -21.5351,-10.99101 -21.5351,-24.5491z" fill="none" stroke="#000000"></path></g></g><g stroke-width="1"><path d="M369.23528,294.06986c1.88132,0.43677 3.76263,0.87354 6.24585,2.25719c2.48322,1.38364 5.56834,3.71416 8.96448,7.01735c3.39614,3.30319 7.1033,7.57907 9.70912,10.89406c2.60582,3.31499 4.11031,5.66909 5.45531,8.26072c1.345,2.59163 2.53052,5.4208 2.95913,8.06083c0.42861,2.64003 0.10031,5.09092 -0.05076,8.24366c-0.15107,3.15275 -0.12491,7.00735 -0.81854,10.14356c-0.69363,3.13621 -2.10705,5.55403 -2.33107,9.34696c-0.22401,3.79293 0.74138,8.96096 0.8052,13.37438c0.06382,4.41342 -0.77393,8.07221 -1.59978,11.51921c-0.82585,3.447 -1.63978,6.6822 -3.59321,9.04556c-1.95343,2.36336 -5.04634,3.85488 -7.8262,5.78041c-2.77986,1.92553 -5.24667,4.28508 -8.45277,6.12484c-3.2061,1.83976 -7.1515,3.15972 -10.93303,4.43291c-3.78153,1.27319 -7.39919,2.4996 -11.27134,3.224c-3.87215,0.7244 -7.99881,0.94678 -10.8939,2.3249c-2.8951,1.37812 -4.55864,3.91198 -7.91013,4.24955c-3.35149,0.33757 -8.39092,-1.52114 -11.84175,-1.9725c-3.45083,-0.45136 -5.31305,0.50465 -8.02211,0.18805c-2.70905,-0.3166 -6.26494,-1.90579 -9.64807,-3.55886c-3.38314,-1.65307 -6.59353,-3.37003 -9.80042,-5.74587c-3.2069,-2.37585 -6.4103,-5.41058 -8.24373,-7.52244c-1.83343,-2.11185 -2.29689,-3.30083 -4.92533,-6.64095c-2.62843,-3.34012 -7.42183,-8.8314 -9.53531,-12.2573c-2.11348,-3.4259 -1.54704,-4.78644 -1.96427,-7.71118c-0.41723,-2.92474 -1.81814,-7.41369 -2.80074,-11.93744c-0.9826,-4.52375 -1.54689,-9.08229 -2.11119,-13.64083c-0.56429,-4.55854 1.46841,-0.57266 3.50111,3.41321" fill="none" stroke="#000000"></path><g><path d="M353.90188,401.43137c-0.01758,-0.43372 0.49497,-0.81561 1.03349,-0.7678c0.53852,0.04781 1.10301,0.52533 1.12402,0.95936c0.02102,0.43403 -0.50144,0.82456 -1.04691,0.77618c-0.54547,-0.04838 -1.09302,-0.53402 -1.1106,-0.96774z" fill="#000000" stroke="none"></path><path d="M337.57022,376.8301c0.05734,-0.52115 0.50954,-1.04487 0.90528,-1.03946c0.39574,0.00541 0.73502,0.53995 0.68021,1.06113c-0.05481,0.52118 -0.50371,1.029 -0.9045,1.02343c-0.40079,-0.00557 -0.73832,-0.52396 -0.68098,-1.0451z" fill="#000000" stroke="none"></path><path d="M372.80818,394.30987c-0.03748,-0.43634 0.52772,-0.84469 1.13652,-0.81489c0.6088,0.0298 1.2612,0.49775 1.30257,0.93427c0.04137,0.43653 -0.5283,0.84163 -1.14493,0.81143c-0.61663,-0.0302 -1.25669,-0.49448 -1.29417,-0.93081z" fill="#000000" stroke="none"></path><path d="M348.88811,368.07971c0.04926,-0.56735 0.54873,-1.1133 1.00967,-1.09553c0.46094,0.01777 0.88334,0.59926 0.83702,1.16672c-0.04632,0.56746 -0.56136,1.12089 -1.02829,1.10294c-0.46693,-0.01796 -0.86767,-0.60678 -0.8184,-1.17413z" fill="#000000" stroke="none"></path><path d="M333.02359,383.71926c0.07078,-0.49689 0.58539,-1.0136 1.02248,-1.02584c0.43709,-0.01224 0.79666,0.48001 0.72867,0.97681c-0.06799,0.49681 -0.56353,0.99818 -1.00612,1.01049c-0.44259,0.01231 -0.81582,-0.46458 -0.74503,-0.96146z" fill="#000000" stroke="none"></path><path d="M368.06253,399.7478c-0.02338,-0.42502 0.53375,-0.80848 1.12196,-0.7691c0.58822,0.03938 1.20753,0.50159 1.23467,0.92687c0.02713,0.42527 -0.53791,0.81361 -1.13371,0.77375c-0.5958,-0.03986 -1.19954,-0.5065 -1.22292,-0.93152z" fill="#000000" stroke="none"></path><path d="M326.36397,374.1084c0.04518,-0.49836 0.58781,-1.03493 1.08741,-1.07469c0.4996,-0.03975 0.95617,0.41732 0.91419,0.91542c-0.04199,0.4981 -0.58253,1.03723 -1.08852,1.07751c-0.50599,0.04028 -0.95826,-0.41989 -0.91308,-0.91824z" fill="#000000" stroke="none"></path><path d="M357.6302,390.2279c-0.04772,-0.45758 0.44503,-0.88013 0.98825,-0.83782c0.54322,0.04231 1.13689,0.54947 1.18809,1.00732c0.05119,0.45785 -0.44009,0.86638 -0.99026,0.82345c-0.55017,-0.04293 -1.13835,-0.53537 -1.18607,-0.99295z" fill="#000000" stroke="none"></path><path d="M340.7559,402.33571c-0.01918,-0.47285 0.4401,-0.95068 0.92497,-0.95853c0.48487,-0.00785 0.99533,0.45428 1.0176,0.92708c0.02228,0.4728 -0.44363,0.95627 -0.93475,0.96425c-0.49112,0.00798 -0.98865,-0.45995 -1.00783,-0.9328z" fill="#000000" stroke="none"></path><path d="M376.53798,381.4948c-0.06331,-0.54709 0.45796,-1.04981 1.03708,-0.99894c0.57912,0.05086 1.2161,0.65531 1.28311,1.20272c0.06701,0.54741 -0.43596,1.0378 -1.0224,0.98621c-0.58644,-0.05158 -1.23449,-0.64291 -1.29779,-1.18999z" fill="#000000" stroke="none"></path><path d="M312.78281,394.54828c0.01065,-0.475 0.50448,-1.00437 0.98884,-1.05075c0.48436,-0.04638 0.95926,0.39023 0.95171,0.86493c-0.00755,0.4747 -0.49756,0.98749 -0.98811,1.03438c-0.49055,0.04688 -0.96309,-0.37356 -0.95244,-0.84856z" fill="#000000" stroke="none"></path><path d="M347.23885,407.24996c0.0056,-0.5035 0.50718,-0.9855 1.01353,-0.96969c0.50636,0.01581 1.01749,0.52942 1.01513,1.03302c-0.00236,0.5036 -0.51822,0.9972 -1.03114,0.98125c-0.51292,-0.01594 -1.00311,-0.54108 -0.99752,-1.04458z" fill="#000000" stroke="none"></path><path d="M332.76018,370.21332c0.01852,-0.50515 0.47218,-1.04966 0.90825,-1.08869c0.43608,-0.03903 0.85458,0.42743 0.83884,0.93233c-0.01574,0.5049 -0.46571,1.04824 -0.90736,1.08776c-0.44164,0.03952 -0.85826,-0.42626 -0.83973,-0.9314z" fill="#000000" stroke="none"></path><path d="M364.43261,387.55991c-0.04821,-0.49644 0.47203,-0.96274 1.04849,-0.92072c0.57647,0.04202 1.20917,0.59235 1.26106,1.08906c0.0519,0.49671 -0.47701,0.9398 -1.06091,0.89712c-0.5839,-0.04269 -1.20043,-0.56902 -1.24865,-1.06546z" fill="#000000" stroke="none"></path><path d="M321.65208,400.40295c-0.02028,-0.48042 0.47648,-0.97204 0.98866,-0.99353c0.51219,-0.02149 1.03981,0.42715 1.06336,0.90743c0.02355,0.48029 -0.45696,0.99223 -0.97562,1.0141c-0.51866,0.02188 -1.05612,-0.44758 -1.0764,-0.92801z" fill="#000000" stroke="none"></path><path d="M354.67679,376.12047c0.01785,-0.57785 0.55898,-1.13715 1.08329,-1.11585c0.52431,0.0213 1.03182,0.62319 1.01732,1.20118c-0.0145,0.57799 -0.551,1.13208 -1.08201,1.11048c-0.53101,-0.0216 -1.03645,-0.61795 -1.0186,-1.19581z" fill="#000000" stroke="none"></path><path d="M338.25304,390.12071c0.00497,-0.46065 0.47365,-0.919 0.93602,-0.90735c0.46237,0.01165 0.91844,0.49329 0.91642,0.95401c-0.00202,0.46072 -0.46212,0.90052 -0.93037,0.88862c-0.46825,-0.0119 -0.92705,-0.47464 -0.92207,-0.93528z" fill="#000000" stroke="none"></path><path d="M318.70719,381.20026c0.08674,-0.49225 0.68873,-1.01527 1.20909,-1.04498c0.52036,-0.02972 0.95911,0.43386 0.87569,0.92592c-0.08342,0.49206 -0.689,1.01258 -1.21605,1.04267c-0.52705,0.03009 -0.95547,-0.43136 -0.86873,-0.92361z" fill="#000000" stroke="none"></path><path d="M336.18362,388.39019c-0.05787,-2.67526 3.82784,-5.47774 8.06898,-5.15372c4.24114,0.32401 8.83771,3.77451 8.92268,6.45184c0.08497,2.67733 -4.34167,4.58149 -8.64017,4.24833c-4.2985,-0.33315 -8.29362,-2.87119 -8.35149,-5.54645z" fill="#020202" stroke="#000000"></path><path d="M311.06073,389.80236c0.54247,-5.75037 6.02839,-11.78223 12.44168,-16.53553c6.41328,-4.7533 13.75393,-8.22805 21.85521,-8.23956c8.10128,-0.01151 16.96318,3.44021 24.17831,8.64473c7.21513,5.20452 12.78348,12.16185 13.31157,17.90475c0.52809,5.7429 -3.98409,10.27138 -11.25683,13.37351c-7.27274,3.10212 -17.30604,4.77789 -26.49647,4.78188c-9.19043,0.00399 -17.53799,-1.66381 -23.88025,-5.17468c-6.34227,-3.51087 -10.69569,-9.00474 -10.15322,-14.75511z" fill="none" stroke="#000000"></path></g></g><g fill="none" stroke-width="0.5"><path d="M368.98251,293.136c1.79387,0.12322 3.58774,0.24644 6.24497,1.94941c2.65723,1.70297 6.17782,4.9857 9.13745,8.24753c2.95963,3.26183 5.35831,6.50276 8.14615,9.63798c2.78784,3.13522 5.96484,6.16472 7.66564,9.64058c1.7008,3.47585 1.92541,7.39806 1.70378,9.95594c-0.22163,2.55788 -0.88949,3.75145 -0.61313,6.28515c0.27635,2.5337 1.49692,6.40753 0.41614,9.57472c-1.08078,3.16719 -4.4629,5.62775 -4.52084,10.00733c-0.05794,4.37958 3.20831,10.67817 3.93662,14.97459c0.72831,4.29642 -1.08133,6.59067 -2.89257,9.455c-1.81124,2.86433 -3.62408,6.29875 -5.26526,8.98172c-1.64118,2.68297 -3.1107,4.61448 -4.96893,6.6308c-1.85823,2.01632 -4.10519,4.11745 -7.76389,5.83089c-3.6587,1.71344 -8.72916,3.03918 -13.31768,4.43252c-4.58851,1.39334 -8.69509,2.85429 -12.2579,3.54267c-3.56281,0.68838 -6.58186,0.60419 -8.63907,1.64907c-2.0572,1.04489 -3.15256,3.21885 -6.70725,3.32654c-3.5547,0.10769 -9.56874,-1.85088 -13.32835,-1.23046c-3.75961,0.62042 -5.26478,3.81984 -8.00377,3.46286c-2.73899,-0.35697 -6.71179,-4.27033 -10.07906,-6.23193c-3.36727,-1.9616 -6.129,-1.97143 -8.8824,-4.83549c-2.75341,-2.86406 -5.4985,-8.58233 -7.8031,-10.58493c-2.30461,-2.00261 -4.16873,-0.28954 -7.19472,-3.00706c-3.02599,-2.71751 -7.21385,-9.86561 -9.38328,-14.24551c-2.16944,-4.3799 -2.32046,-5.99162 -2.28613,-8.93646c0.03433,-2.94484 0.254,-7.22281 -0.46519,-11.48432c-0.7192,-4.26151 -2.37727,-8.50657 -4.03534,-12.75162c-1.65807,-4.24506 0.91885,-0.63019 3.49577,2.98467" stroke="#000000"></path><g><path d="M353.7869,401.07946c0.04611,-0.30816 0.78013,-0.5375 1.40701,-0.37098c0.62688,0.16652 1.14662,0.72889 1.10452,1.03811c-0.0421,0.30923 -0.64604,0.36532 -1.28024,0.1957c-0.63419,-0.16961 -1.27741,-0.55467 -1.2313,-0.86284z" stroke="none"></path><path d="M337.74809,379.05865c0.18639,-0.59683 0.71383,-1.2159 1.08801,-1.1234c0.37418,0.0925 0.59509,0.89659 0.41109,1.494c-0.184,0.59742 -0.77292,0.98817 -1.15224,0.89321c-0.37931,-0.09496 -0.53325,-0.66699 -0.34686,-1.26382z" stroke="none"></path><path d="M373.07751,393.57382c-0.00814,-0.34891 0.60258,-0.74362 1.24695,-0.61209c0.64437,0.13154 1.3224,0.78932 1.33466,1.13907c0.01225,0.34975 -0.64127,0.39147 -1.29414,0.25628c-0.65287,-0.13518 -1.27933,-0.43436 -1.28747,-0.78327z" stroke="none"></path><path d="M349.12967,366.03144c-0.00703,-0.60655 0.3604,-1.20664 0.71856,-1.27441c0.35817,-0.06777 0.70706,0.39679 0.71639,1.00291c0.00932,0.60612 -0.32093,1.35381 -0.68348,1.42327c-0.36255,0.06946 -0.74443,-0.54521 -0.75147,-1.15176z" stroke="none"></path><path d="M331.05581,383.06875c-0.03184,-0.45816 0.52366,-0.80431 1.03846,-0.72341c0.5148,0.08091 0.98889,0.58887 1.02401,1.04755c0.03513,0.45868 -0.3687,0.86807 -0.88925,0.78648c-0.52055,-0.08159 -1.14138,-0.65246 -1.17322,-1.11062z" stroke="none"></path><path d="M367.68366,399.62392c-0.18353,-0.51374 0.36232,-1.21286 1.04584,-1.40565c0.68352,-0.19279 1.5047,0.12073 1.69259,0.63324c0.18789,0.51251 -0.2575,1.224 -0.94922,1.41933c-0.69172,0.19533 -1.60568,-0.13318 -1.78921,-0.64692z" stroke="none"></path><path d="M326.66802,374.32055c0.03055,-0.66455 0.59506,-1.34918 1.19274,-1.36396c0.59767,-0.01478 1.22851,0.64028 1.20178,1.30473c-0.02673,0.66445 -0.71101,1.33829 -1.31701,1.3532c-0.606,0.01491 -1.10805,-0.62943 -1.07751,-1.29398z" stroke="none"></path><path d="M357.96723,388.83469c0.06851,-0.30185 0.47212,-0.50362 0.86147,-0.38049c0.38935,0.12313 0.76445,0.57116 0.69843,0.8738c-0.06603,0.30264 -0.57318,0.45988 -0.9681,0.33492c-0.39492,-0.12495 -0.66032,-0.52638 -0.5918,-0.82823z" stroke="none"></path><path d="M340.26556,403.9276c0.08918,-0.36859 0.87969,-0.73477 1.46896,-0.69344c0.58927,0.04133 0.9773,0.49016 0.89188,0.85901c-0.08542,0.36885 -0.64428,0.65772 -1.23982,0.61544c-0.59553,-0.04229 -1.21021,-0.41242 -1.12103,-0.78101z" stroke="none"></path><path d="M376.48413,380.43191c-0.04365,-0.62474 0.54308,-1.04039 1.31495,-0.79376c0.77187,0.24663 1.72887,1.15553 1.77745,1.78185c0.04858,0.62632 -0.81126,0.97005 -1.59453,0.71986c-0.78328,-0.25019 -1.45422,-1.0832 -1.49787,-1.70794z" stroke="none"></path><path d="M312.45776,393.86428c-0.22431,-0.33837 -0.09227,-0.82892 0.20892,-0.92661c0.30119,-0.09769 0.77153,0.19748 0.99776,0.53523c0.22623,0.33775 0.20836,0.71808 -0.09606,0.81641c-0.30442,0.09833 -0.88632,-0.08665 -1.11063,-0.42502z" stroke="none"></path><path d="M346.66376,406.28144c-0.10967,-0.4737 0.24453,-1.05996 0.76876,-1.15895c0.52422,-0.09899 1.21846,0.28929 1.33148,0.76236c0.11302,0.47307 -0.35517,1.03092 -0.88674,1.13103c-0.53157,0.1001 -1.10382,-0.26073 -1.2135,-0.73443z" stroke="none"></path><path d="M334.03047,369.89349c-0.02669,-0.52424 0.3713,-1.17148 0.73165,-1.3029c0.36035,-0.13142 0.68307,0.253 0.71207,0.7764c0.029,0.5234 -0.23573,1.18578 -0.59996,1.31897c-0.36423,0.13318 -0.81707,-0.26823 -0.84376,-0.79247z" stroke="none"></path><path d="M364.08904,388.87015c-0.10356,-0.527 0.28898,-0.92427 0.79349,-0.85584c0.50451,0.06843 1.12097,0.60256 1.22776,1.13c0.10679,0.52743 -0.2961,1.04816 -0.80713,0.97954c-0.51103,-0.06862 -1.11056,-0.72671 -1.21412,-1.2537z" stroke="none"></path><path d="M322.96482,401.63417c0.02262,-0.60409 0.74185,-1.31854 1.42807,-1.531c0.68623,-0.21247 1.33945,0.07705 1.32122,0.67978c-0.01823,0.60273 -0.70791,1.51867 -1.40277,1.73498c-0.69486,0.21631 -1.36913,-0.27967 -1.34652,-0.88376z" stroke="none"></path><path d="M355.14527,375.08383c0.15546,-0.52782 0.96524,-0.86934 1.51537,-0.65953c0.55013,0.20982 0.84059,0.97096 0.68865,1.50013c-0.15194,0.52916 -0.7463,0.82634 -1.30228,0.61359c-0.55598,-0.21275 -1.0572,-0.92637 -0.90174,-1.45419z" stroke="none"></path><path d="M338.55501,390.54811c0.06745,-0.47108 0.82246,-1.07787 1.48257,-1.23647c0.66011,-0.15859 1.22532,0.13101 1.16209,0.60108c-0.06323,0.47007 -0.7549,1.12061 -1.42311,1.28148c-0.66822,0.16087 -1.28899,-0.17501 -1.22155,-0.64609z" stroke="none"></path><path d="M318.69504,383.22649c0.24689,-0.41338 1.26696,-0.98764 2.01459,-1.13182c0.74764,-0.14418 1.22284,0.14173 0.98073,0.55419c-0.24212,0.41246 -1.20156,0.95146 -1.95844,1.09729c-0.75688,0.14583 -1.28378,-0.10628 -1.03688,-0.51966z" stroke="none"></path><path d="M335.84131,389.02252c-0.4846,-2.68414 3.48667,-6.20545 8.18444,-6.26593c4.69777,-0.06048 10.12204,3.33987 10.63666,6.02362c0.51462,2.68376 -3.8804,4.65092 -8.64073,4.70354c-4.76033,0.05262 -9.69577,-1.77709 -10.18037,-4.46123z" stroke="#000000"></path><path d="M311.30225,390.41583c0.30049,-5.98941 4.9831,-12.24857 11.59034,-17.025c6.60724,-4.77643 15.13912,-8.07013 23.46483,-8.57572c8.3257,-0.50559 16.44524,1.77693 23.56106,7.64299c7.11582,5.86606 13.22794,15.31565 13.7934,21.36477c0.56547,6.04912 -4.41572,8.69776 -12.01086,11.07307c-7.59514,2.37531 -17.80424,4.47727 -27.01302,4.90331c-9.20878,0.42604 -17.41723,-0.82384 -23.54288,-4.25251c-6.12565,-3.42866 -10.14336,-9.14151 -9.84288,-15.13091z" stroke="#000000"></path></g></g><path d="M0,700v-700h500v700z" fill="none" stroke="#000000" stroke-width="1"></path></g></svg>