<svg version="1.1" xmlns="http://www.w3.org/2000/svg" xmlns:xlink="http://www.w3.org/1999/xlink" width="500" height="700"><g fill="none" fill-rule="nonzero" stroke="none" stroke-width="none" stroke-linecap="butt" stroke-linejoin="miter" stroke-miterlimit="10" stroke-dasharray="" stroke-dashoffset="0" font-family="none" font-weight="none" font-size="none" text-anchor="none" style="mix-blend-mode: normal"><g stroke-width="1"><path d="M247.6923,323.62897c-0.59942,3.69407 -1.19884,7.38815 -1.33367,11.70384c-0.13483,4.3157 0.19492,9.25301 0.30769,14.14451c0.11277,4.8915 0.00856,9.73718 0.73019,14.91766c0.72163,5.18048 2.26911,10.69577 1.9263,14.68566c-0.34281,3.98989 -2.5759,6.4544 -4.20149,10.57629c-1.62559,4.12189 -2.64368,9.90118 -4.64552,14.54969c-2.00185,4.64851 -4.98746,8.16623 -7.3288,11.5251c-2.34135,3.35886 -4.03843,6.55887 -7.53477,9.27594c-3.49634,2.71707 -8.79194,4.95121 -12.38641,8.57988c-3.59447,3.62867 -5.48779,8.65186 -9.90255,10.35759c-4.41476,1.70573 -11.35095,0.09399 -15.5367,0.65839c-4.18575,0.5644 -5.62106,3.30494 -10.02127,3.51286c-4.40021,0.20791 -11.76534,-2.1168 -16.75874,-2.99362c-4.9934,-0.87681 -7.61508,-0.30572 -11.2872,-1.44477c-3.67212,-1.13905 -8.39468,-3.98823 -12.97729,-7.70081c-4.58261,-3.71258 -9.02528,-8.28855 -12.10313,-11.88922c-3.07785,-3.60067 -4.79088,-6.22604 -6.07625,-8.86665c-1.28537,-2.64062 -2.14308,-5.29648 -4.38505,-8.96807c-2.24197,-3.67158 -5.8682,-8.35888 -8.55082,-13.61016c-2.68262,-5.25127 -4.42163,-11.06653 -4.91277,-15.2329c-0.49114,-4.16638 0.2656,-6.68388 -1.0464,-12.91972c-1.312,-6.23585 -4.69273,-16.19003 -4.95218,-18.04666c-0.25945,-1.85662 2.60238,4.38432 3.25907,3.3149c0.6567,-1.06941 -0.89174,-9.44918 -0.49387,-14.68324c0.39787,-5.23405 2.74206,-7.32239 3.75511,-11.18756c1.01305,-3.86516 0.69498,-9.50715 2.08972,-14.02412c1.39474,-4.51698 4.50229,-7.90894 7.14839,-12.03792c2.6461,-4.12897 4.83075,-8.99496 7.55375,-13.10805c2.723,-4.1131 5.98436,-7.47331 9.24571,-10.83352c3.26135,-3.36021 7.19347,-5.65202 11.12558,-7.94382" fill="none" stroke="#000000"></path><g><path d="M181.20712,400.40557c-0.07562,-0.50612 0.37115,-1.1172 0.90342,-1.22971c0.53227,-0.11251 1.15005,0.27355 1.22907,0.77895c0.07902,0.5054 -0.3807,1.13015 -0.91987,1.24418c-0.53917,0.11403 -1.137,-0.2873 -1.21262,-0.79342z" fill="#000000" stroke="none"></path><path d="M167.00468,415.78053c-0.0325,-0.5356 0.43817,-1.01224 0.94725,-0.95491c0.50908,0.05733 1.05657,0.64862 1.09232,1.18459c0.03575,0.53597 -0.44023,1.0166 -0.95586,0.95856c-0.51563,-0.05804 -1.05121,-0.65264 -1.08372,-1.18824z" fill="#000000" stroke="none"></path><path d="M197.372,387.07587c-0.1116,-0.49428 0.3327,-1.05751 0.89004,-1.12614c0.55735,-0.06863 1.22774,0.35735 1.3429,0.85119c0.11516,0.49384 -0.3249,1.05554 -0.88936,1.12504c-0.56446,0.0695 -1.23198,-0.35581 -1.34358,-0.85009z" fill="#000000" stroke="none"></path><path d="M157.98333,404.16789c-0.06565,-0.51485 0.36283,-0.9493 0.86239,-0.87445c0.49956,0.07485 1.0702,0.65901 1.13904,1.17434c0.06884,0.51533 -0.36413,0.96184 -0.87011,0.88609c-0.50599,-0.07575 -1.06567,-0.67113 -1.13132,-1.18598z" fill="#000000" stroke="none"></path><path d="M194.20219,419.65357c-0.0802,-0.5748 0.37598,-1.22853 0.92366,-1.2997c0.54768,-0.07116 1.18686,0.44024 1.27057,1.01459c0.0837,0.57434 -0.38808,1.21163 -0.94286,1.28361c-0.55479,0.07198 -1.17116,-0.4237 -1.25136,-0.9985z" fill="#000000" stroke="none"></path><path d="M172.26847,396.20309c-0.0754,-0.52974 0.33013,-1.05619 0.81406,-1.06164c0.48393,-0.00545 1.04624,0.51008 1.12474,1.03979c0.0785,0.52971 -0.32683,1.07359 -0.81695,1.07921c-0.49013,0.00562 -1.04644,-0.52762 -1.12184,-1.05736z" fill="#000000" stroke="none"></path><path d="M210.40946,406.34067c-0.08717,-0.56875 0.40313,-1.13335 0.9812,-1.12642c0.57807,0.00692 1.24392,0.58537 1.33478,1.15416c0.09086,0.56879 -0.39327,1.12793 -0.97872,1.12089c-0.58545,-0.00704 -1.2501,-0.57988 -1.33727,-1.14863z" fill="#000000" stroke="none"></path><path d="M183.54035,386.20103c-0.04776,-0.50711 0.43177,-1.11851 0.95397,-1.2264c0.5222,-0.1079 1.08706,0.2877 1.13816,0.79413c0.0511,0.50642 -0.41158,1.12368 -0.94037,1.23299c-0.5288,0.10931 -1.104,-0.2936 -1.15176,-0.80071z" fill="#000000" stroke="none"></path><path d="M169.40254,402.665c-0.07364,-0.50487 0.32332,-0.95841 0.79672,-0.9171c0.4734,0.04132 1.02324,0.57749 1.0999,1.08263c0.07667,0.50513 -0.31984,0.97922 -0.79931,0.93749c-0.47946,-0.04173 -1.02368,-0.59815 -1.09732,-1.10302z" fill="#000000" stroke="none"></path><path d="M207.0125,414.35765c-0.07559,-0.61727 0.38865,-1.27665 0.93971,-1.31623c0.55106,-0.03958 1.18895,0.54063 1.26807,1.15764c0.07912,0.61702 -0.40054,1.27084 -0.95876,1.3109c-0.55821,0.04006 -1.17343,-0.53504 -1.24902,-1.15231z" fill="#000000" stroke="none"></path><path d="M159.98778,391.1358c-0.07223,-0.56275 0.35964,-1.05244 0.85609,-0.97245c0.49645,0.07999 1.05748,0.72965 1.13288,1.29292c0.0754,0.56326 -0.33482,1.04012 -0.83752,0.95904c-0.50269,-0.08108 -1.07923,-0.71675 -1.15146,-1.2795z" fill="#000000" stroke="none"></path><path d="M195.82553,404.12609c-0.09637,-0.53256 0.37875,-1.14889 0.94462,-1.23444c0.56587,-0.08555 1.22251,0.35969 1.32249,0.8917c0.09998,0.53201 -0.35669,1.1508 -0.92972,1.23746c-0.57302,0.08666 -1.24103,-0.36216 -1.3374,-0.89472z" fill="#000000" stroke="none"></path><path d="M180.84173,422.89595c-0.07384,-0.49797 0.40654,-1.03139 0.96936,-1.06701c0.56283,-0.03563 1.2081,0.42654 1.28554,0.92428c0.07744,0.49775 -0.41296,1.03108 -0.98306,1.06716c-0.57009,0.03608 -1.198,-0.42646 -1.27184,-0.92443z" fill="#000000" stroke="none"></path><path d="M213.25715,392.81026c-0.08027,-0.51185 0.4435,-0.99126 1.05162,-0.95188c0.60813,0.03938 1.30061,0.59754 1.38476,1.10964c0.08415,0.51211 -0.44003,0.97816 -1.05595,0.9382c-0.61592,-0.03996 -1.30017,-0.58411 -1.38044,-1.09597z" fill="#000000" stroke="none"></path><path d="M152.27285,410.1656c-0.01371,-0.56531 0.48936,-1.03479 1.01305,-0.94751c0.52369,0.08728 1.068,0.73131 1.08506,1.29718c0.01706,0.56587 -0.49314,1.05357 -1.02358,0.96528c-0.53044,-0.08829 -1.06082,-0.74963 -1.07453,-1.31494z" fill="#000000" stroke="none"></path><path d="M188.22185,427.23383c-0.02069,-0.49238 0.49226,-1.02719 1.03499,-1.06333c0.54273,-0.03615 1.11525,0.42637 1.13941,0.91851c0.02416,0.49214 -0.50005,1.01392 -1.0498,1.05046c-0.54975,0.03654 -1.10391,-0.41326 -1.1246,-0.90564z" fill="#000000" stroke="none"></path><path d="M165.63406,388.42785c-0.03197,-0.56806 0.43108,-1.05965 0.91395,-0.98728c0.48287,0.07237 0.98554,0.7087 1.0206,1.27722c0.03505,0.56852 -0.39752,1.06923 -0.8864,0.99598c-0.48888,-0.07325 -1.01618,-0.71786 -1.04815,-1.28592z" fill="#000000" stroke="none"></path><path d="M202.17568,399.82094c-0.07623,-0.50945 0.41727,-1.08026 0.99005,-1.13965c0.57278,-0.05938 1.22483,0.39267 1.30471,0.90173c0.07989,0.50907 -0.41239,1.07515 -0.9925,1.13527c-0.58011,0.06012 -1.22603,-0.38791 -1.30226,-0.89735z" fill="#000000" stroke="none"></path><path d="M160.735,418.62503c0.00876,-0.54611 0.53551,-1.04694 1.05901,-0.99642c0.5235,0.05053 1.04374,0.65242 1.03833,1.19885c-0.00541,0.54643 -0.53647,1.03741 -1.0667,0.98618c-0.53023,-0.05123 -1.03939,-0.64251 -1.03064,-1.18862z" fill="#000000" stroke="none"></path><path d="M173.29682,407.66032c-0.55192,-3.10513 3.29483,-6.15974 7.96218,-6.91286c4.66735,-0.75311 10.15529,0.79527 10.73704,3.89559c0.58175,3.10032 -3.7427,7.75258 -8.47252,8.52422c-4.72981,0.77164 -9.67478,-2.40182 -10.2267,-5.50695z" fill="#a1a1a1" stroke="#000000"></path><path d="M149.75442,404.20957c-0.37364,-6.30242 2.08715,-11.43656 7.37063,-14.69565c5.28348,-3.25909 13.38966,-4.64313 22.21748,-5.32115c8.82782,-0.67801 18.37729,-0.65 25.91047,2.66452c7.53318,3.31452 13.05009,9.91555 13.99585,16.4187c0.94577,6.50315 -2.6796,12.90841 -8.85549,17.71263c-6.17589,4.80422 -14.90232,8.0074 -24.31923,8.48211c-9.41692,0.47471 -19.52433,-1.77906 -26.15256,-6.63018c-6.62823,-4.85112 -9.79351,-12.32857 -10.16714,-18.63098z" fill="none" stroke="#000000"></path></g></g><g fill="none" stroke-width="0.5"><path d="M248.91886,323.86066c-1.20289,2.85119 -2.40578,5.70238 -2.65958,10.18655c-0.2538,4.48417 0.4415,10.60132 0.79192,16.02737c0.35042,5.42604 0.35596,10.16098 0.79666,15.1186c0.44069,4.95762 1.31654,10.13792 0.55184,14.01486c-0.76471,3.87694 -3.16996,6.45051 -5.00531,10.16465c-1.83535,3.71414 -3.10079,8.56886 -4.89189,13.23589c-1.79109,4.66703 -4.10783,9.14638 -6.31564,12.55757c-2.2078,3.41119 -4.30666,5.75424 -7.71117,8.81291c-3.40451,3.05868 -8.11467,6.83299 -11.64517,10.62063c-3.5305,3.78764 -5.88135,7.58862 -10.51641,8.90625c-4.63505,1.31763 -11.55432,0.15191 -15.35676,1.1359c-3.80245,0.98399 -4.48808,4.11768 -8.67506,3.72454c-4.18698,-0.39314 -11.87531,-4.31312 -17.23653,-4.97077c-5.36122,-0.65766 -8.39533,1.947 -11.32563,0.61724c-2.9303,-1.32977 -5.7568,-6.59396 -10.64362,-10.00863c-4.88683,-3.41467 -11.83399,-4.97981 -15.11194,-8.26866c-3.27795,-3.28885 -2.88668,-8.3014 -3.29228,-11.42658c-0.4056,-3.12518 -1.60808,-4.363 -4.3895,-7.96038c-2.78142,-3.59738 -7.14179,-9.55431 -10.7367,-14.3931c-3.59491,-4.8388 -6.42436,-8.55945 -6.31925,-13.07238c0.10512,-4.51293 3.1448,-9.81813 2.45871,-16.50801c-0.68609,-6.68988 -5.09797,-14.76442 -5.58324,-16.34294c-0.48527,-1.57851 2.95607,3.339 3.4025,2.25302c0.44643,-1.08598 -2.10205,-8.17547 -2.29501,-12.71264c-0.19296,-4.53717 1.96959,-6.52203 3.32361,-11.26416c1.35402,-4.74213 1.89952,-12.24153 3.20622,-16.52951c1.3067,-4.28798 3.37459,-5.36453 6.45914,-8.91061c3.08455,-3.54608 7.18575,-9.56168 10.29705,-13.89223c3.11129,-4.33056 5.23268,-6.97607 7.35406,-9.62157c2.12138,-2.64551 6.45685,-6.42985 10.79232,-10.21418" stroke="#000000"></path><g><path d="M180.33389,398.98547c0.15371,-0.46971 0.5942,-1.2271 0.90651,-1.39894c0.31232,-0.17184 0.49646,0.24187 0.34475,0.71048c-0.15171,0.46861 -0.63929,0.99211 -0.95587,1.16486c-0.31658,0.17274 -0.4491,-0.00669 -0.29539,-0.4764z" stroke="none"></path><path d="M166.35239,413.66404c-0.20091,-0.48369 0.22772,-0.74126 0.92289,-0.69865c0.69517,0.0426 1.65686,0.38538 1.86222,0.86934c0.20536,0.48397 -0.34563,1.10913 -1.05038,1.06802c-0.70475,-0.04111 -1.53381,-0.75501 -1.73472,-1.23871z" stroke="none"></path><path d="M197.05305,387.92151c-0.07561,-0.25953 0.73236,-0.85904 1.5455,-1.14512c0.81314,-0.28608 1.63146,-0.25872 1.71226,-0.00102c0.08081,0.2577 -0.5759,0.74574 -1.39862,1.03486c-0.82272,0.28912 -1.78353,0.3708 -1.85914,0.11127z" stroke="none"></path><path d="M156.99805,404.66489c-0.217,-0.48869 -0.00574,-0.99602 0.46928,-0.90439c0.47502,0.09163 1.21381,0.78221 1.43384,1.27149c0.22003,0.48927 -0.0787,0.77723 -0.56029,0.68321c-0.48159,-0.09402 -1.12583,-0.56162 -1.34283,-1.0503z" stroke="none"></path><path d="M194.33122,418.28114c-0.15636,-0.73893 0.39481,-1.36546 1.00054,-1.18779c0.60573,0.17767 1.26601,1.15954 1.42624,1.89961c0.16023,0.74006 -0.17958,1.23832 -0.7919,1.05766c-0.61231,-0.18066 -1.47852,-1.03055 -1.63488,-1.76948z" stroke="none"></path><path d="M172.92689,398.71635c-0.08849,-0.37659 0.20668,-0.82548 0.70947,-0.85371c0.50279,-0.02823 1.21321,0.36419 1.30491,0.7406c0.0917,0.37641 -0.43532,0.73681 -0.94584,0.76491c-0.51052,0.0281 -0.98005,-0.27521 -1.06854,-0.65181z" stroke="none"></path><path d="M210.24051,407.24206c-0.2651,-0.74764 -0.18624,-1.51951 0.18284,-1.36127c0.36908,0.15825 1.02836,1.24661 1.29582,1.99526c0.26746,0.74865 0.14311,1.15758 -0.23095,0.99529c-0.37406,-0.16229 -0.98261,-0.88164 -1.24771,-1.62928z" stroke="none"></path><path d="M184.81095,385.10349c-0.0664,-0.60365 0.39516,-1.32311 0.80353,-1.47682c0.40837,-0.15371 0.76354,0.25831 0.83255,0.86098c0.06901,0.60267 -0.14815,1.39598 -0.5604,1.55208c-0.41224,0.15609 -1.00929,-0.33258 -1.07569,-0.93624z" stroke="none"></path><path d="M169.21223,403.01818c-0.10461,-0.47123 0.24668,-0.86866 0.61554,-0.85517c0.36886,0.01348 0.75529,0.43788 0.86225,0.9092c0.10696,0.47131 -0.06553,0.98954 -0.43813,0.97656c-0.37259,-0.01299 -0.93506,-0.55936 -1.03967,-1.03058z" stroke="none"></path><path d="M207.05936,413.41759c0.18602,-0.92122 1.02722,-1.6783 1.64065,-1.61449c0.61342,0.06381 0.99907,0.94852 0.81697,1.87014c-0.1821,0.92162 -0.93196,1.88016 -1.55274,1.81665c-0.62078,-0.06351 -1.0909,-1.15109 -0.90487,-2.07231z" stroke="none"></path><path d="M159.45585,390.10302c-0.10964,-0.52452 0.18107,-0.83803 0.46067,-0.60673c0.2796,0.23131 0.54808,1.00744 0.65951,1.53343c0.11143,0.52599 0.0658,0.80185 -0.21602,0.56737c-0.28182,-0.23448 -0.79452,-0.96956 -0.90416,-1.49408z" stroke="none"></path><path d="M196.72849,404.51495c0.09934,-0.58561 0.88076,-1.22384 1.42436,-1.26271c0.54359,-0.03886 0.84936,0.52164 0.7535,1.10701c-0.09586,0.58536 -0.59336,1.19558 -1.14234,1.23479c-0.54898,0.03921 -1.13485,-0.49348 -1.03551,-1.07909z" stroke="none"></path><path d="M178.99653,423.65452c0.14541,-0.68328 0.85077,-1.50413 1.45363,-1.56918c0.60286,-0.06505 1.1032,0.62571 0.96165,1.30857c-0.14156,0.68286 -0.92501,1.35783 -1.53603,1.4229c-0.61102,0.06507 -1.02466,-0.47901 -0.87925,-1.16229z" stroke="none"></path><path d="M211.18929,392.9424c-0.10842,-0.48644 0.11575,-0.85478 0.55433,-0.63247c0.43858,0.22231 1.09156,1.03528 1.20279,1.52314c0.11122,0.48786 -0.31932,0.65063 -0.76466,0.42432c-0.44535,-0.2263 -0.88403,-0.82855 -0.99245,-1.31499z" stroke="none"></path><path d="M153.01622,409.75062c0.23335,-0.4062 0.82128,-0.58475 1.16334,-0.39015c0.34205,0.19459 0.43823,0.76232 0.20707,1.16977c-0.23116,0.40745 -0.78966,0.65461 -1.13593,0.4579c-0.34627,-0.1967 -0.46782,-0.83131 -0.23447,-1.23751z" stroke="none"></path><path d="M187.09924,425.67471c-0.01906,-0.55989 0.831,-1.11289 1.57274,-1.17179c0.74174,-0.0589 1.37514,0.37631 1.39894,0.93583c0.0238,0.55952 -0.56201,1.24335 -1.31178,1.30373c-0.74977,0.06038 -1.64084,-0.50787 -1.6599,-1.06777z" stroke="none"></path><path d="M163.147,387.70041c0.08569,-0.61865 0.87962,-1.16266 1.50929,-1.14085c0.62967,0.02181 1.09509,0.60945 1.01342,1.22823c-0.08166,0.61879 -0.7104,1.26872 -1.34723,1.24722c-0.63682,-0.0215 -1.26117,-0.71596 -1.17548,-1.33461z" stroke="none"></path><path d="M201.38107,399.30566c-0.17852,-0.67913 0.18908,-1.3419 0.86957,-1.30083c0.68049,0.04107 1.67387,0.78598 1.85674,1.46537c0.18287,0.67939 -0.44476,1.29327 -1.13542,1.2514c-0.69066,-0.04187 -1.41237,-0.73681 -1.59089,-1.41594z" stroke="none"></path><path d="M160.62365,417.74886c-0.25582,-0.56452 0.11162,-1.3112 0.7541,-1.45151c0.64248,-0.14031 1.56,0.32575 1.81992,0.88938c0.25992,0.56362 -0.13776,1.22481 -0.78864,1.36644c-0.65088,0.14163 -1.52957,-0.23979 -1.78538,-0.80431z" stroke="none"></path><path d="M174.94267,407.74592c-0.50308,-3.41873 1.37556,-7.64436 5.28911,-8.44315c3.91356,-0.79879 9.86204,1.82926 10.39012,5.24288c0.52808,3.41363 -4.36423,7.61284 -8.34468,8.42172c-3.98045,0.80888 -6.83148,-1.80271 -7.33456,-5.22145z" stroke="#000000"></path><path d="M152.37377,404.2073c-0.72229,-6.90968 0.30534,-13.36528 5.07354,-16.87003c4.7682,-3.50476 13.27698,-4.05868 22.58556,-3.99967c9.30858,0.05901 19.41696,0.73097 26.81752,4.24564c7.40056,3.51468 12.0933,9.87208 12.68164,16.06679c0.58835,6.19471 -2.9277,12.22674 -9.57953,16.63293c-6.65184,4.40619 -16.43946,7.18653 -25.62982,7.84c-9.19036,0.65347 -17.78344,-0.81994 -23.28729,-5.22857c-5.50385,-4.40863 -7.93933,-11.7774 -8.66162,-18.68708z" stroke="#000000"></path></g></g><g stroke-width="1"><path d="M247.33639,323.28122l1.13208,12.3327l0.86255,13.71709l-1.1194,13.19924l0.58406,16.22951l-4.32873,12.49839l-5.23133,12.60301l-7.36868,11.25441l-8.22916,10.89032l-12.92436,6.27546l-8.08373,10.59301l-16.43761,0.89282l-10.84399,4.19968l-15.29358,-3.34788l-9.85995,-1.56484l-12.39836,-7.85845l-13.24254,-12.20879l-7.26111,-9.34697l-4.60132,-9.4205l-7.67055,-14.88659l-4.37816,-13.70782l0.58205,-10.61858l-3.39796,-16.2525l3.23805,3.23805l-2.29587,-16.61451l2.56836,-13.0771l2.99856,-13.82856l7.50278,-10.33156l5.4963,-13.12679l7.62298,-11.4965l11.88244,-7.31737" fill="none" stroke="#000000"></path><g><path d="M183.40372,398.23952c0,-0.55228 0.44772,-1 1,-1c0.55228,0 1,0.44772 1,1c0,0.55228 -0.44772,1 -1,1c-0.55228,0 -1,-0.44772 -1,-1z" fill="#000000" stroke="none"></path><path d="M167.12353,412.86374c0,-0.55228 0.44772,-1 1,-1c0.55228,0 1,0.44772 1,1c0,0.55228 -0.44772,1 -1,1c-0.55228,0 -1,-0.44772 -1,-1z" fill="#000000" stroke="none"></path><path d="M199.68391,388.49003c0,-0.55228 0.44772,-1 1,-1c0.55228,0 1,0.44772 1,1c0,0.55228 -0.44772,1 -1,1c-0.55228,0 -1,-0.44772 -1,-1z" fill="#000000" stroke="none"></path><path d="M158.98343,403.11426c0,-0.55228 0.44772,-1 1,-1c0.55228,0 1,0.44772 1,1c0,0.55228 -0.44772,1 -1,1c-0.55228,0 -1,-0.44772 -1,-1z" fill="#000000" stroke="none"></path><path d="M191.54382,417.73848c0,-0.55228 0.44772,-1 1,-1c0.55228,0 1,0.44772 1,1c0,0.55228 -0.44772,1 -1,1c-0.55228,0 -1,-0.44772 -1,-1z" fill="#000000" stroke="none"></path><path d="M175.26363,393.36477c0,-0.55228 0.44772,-1 1,-1c0.55228,0 1,0.44772 1,1c0,0.55228 -0.44772,1 -1,1c-0.55228,0 -1,-0.44772 -1,-1z" fill="#000000" stroke="none"></path><path d="M207.82401,407.989c0,-0.55228 0.44772,-1 1,-1c0.55228,0 1,0.44772 1,1c0,0.55228 -0.44772,1 -1,1c-0.55228,0 -1,-0.44772 -1,-1z" fill="#000000" stroke="none"></path><path d="M187.47377,385.2402c0,-0.55228 0.44772,-1 1,-1c0.55228,0 1,0.44772 1,1c0,0.55228 -0.44772,1 -1,1c-0.55228,0 -1,-0.44772 -1,-1z" fill="#000000" stroke="none"></path><path d="M171.19358,399.86443c0,-0.55228 0.44772,-1 1,-1c0.55228,0 1,0.44772 1,1c0,0.55228 -0.44772,1 -1,1c-0.55228,0 -1,-0.44772 -1,-1z" fill="#000000" stroke="none"></path><path d="M203.75396,414.48866c0,-0.55228 0.44772,-1 1,-1c0.55228,0 1,0.44772 1,1c0,0.55228 -0.44772,1 -1,1c-0.55228,0 -1,-0.44772 -1,-1z" fill="#000000" stroke="none"></path><path d="M163.05348,390.11495c0,-0.55228 0.44772,-1 1,-1c0.55228,0 1,0.44772 1,1c0,0.55228 -0.44772,1 -1,1c-0.55228,0 -1,-0.44772 -1,-1z" fill="#000000" stroke="none"></path><path d="M195.61386,404.73917c0,-0.55228 0.44772,-1 1,-1c0.55228,0 1,0.44772 1,1c0,0.55228 -0.44772,1 -1,1c-0.55228,0 -1,-0.44772 -1,-1z" fill="#000000" stroke="none"></path><path d="M179.33367,419.3634c0,-0.55228 0.44772,-1 1,-1c0.55228,0 1,0.44772 1,1c0,0.55228 -0.44772,1 -1,1c-0.55228,0 -1,-0.44772 -1,-1z" fill="#000000" stroke="none"></path><path d="M211.89406,394.98969c0,-0.55228 0.44772,-1 1,-1c0.55228,0 1,0.44772 1,1c0,0.55228 -0.44772,1 -1,1c-0.55228,0 -1,-0.44772 -1,-1z" fill="#000000" stroke="none"></path><path d="M152.87836,409.61391c0,-0.55228 0.44772,-1 1,-1c0.55228,0 1,0.44772 1,1c0,0.55228 -0.44772,1 -1,1c-0.55228,0 -1,-0.44772 -1,-1z" fill="#000000" stroke="none"></path><path d="M185.43874,424.23814c0,-0.55228 0.44772,-1 1,-1c0.55228,0 1,0.44772 1,1c0,0.55228 -0.44772,1 -1,1c-0.55228,0 -1,-0.44772 -1,-1z" fill="#000000" stroke="none"></path><path d="M169.15855,386.86512c0,-0.55228 0.44772,-1 1,-1c0.55228,0 1,0.44772 1,1c0,0.55228 -0.44772,1 -1,1c-0.55228,0 -1,-0.44772 -1,-1z" fill="#000000" stroke="none"></path><path d="M201.71894,401.48934c0,-0.55228 0.44772,-1 1,-1c0.55228,0 1,0.44772 1,1c0,0.55228 -0.44772,1 -1,1c-0.55228,0 -1,-0.44772 -1,-1z" fill="#000000" stroke="none"></path><path d="M161.01846,416.11357c0,-0.55228 0.44772,-1 1,-1c0.55228,0 1,0.44772 1,1c0,0.55228 -0.44772,1 -1,1c-0.55228,0 -1,-0.44772 -1,-1z" fill="#000000" stroke="none"></path><path d="M174.53633,404.55163c0,-3.29939 3.97006,-5.97407 8.86739,-5.97407c4.89732,0 8.86739,2.67468 8.86739,5.97407c0,3.29939 -3.97006,5.97407 -8.86739,5.97407c-4.89732,0 -8.86739,-2.67468 -8.86739,-5.97407z" fill="#a1a1a1" stroke="#000000"></path><path d="M150.84334,404.55163c0,-12.11511 14.57778,-21.93634 32.56038,-21.93634c17.9826,0 32.56038,9.82123 32.56038,21.93634c0,12.11511 -14.57778,21.93634 -32.56038,21.93634c-17.9826,0 -32.56038,-9.82123 -32.56038,-21.93634z" fill="none" stroke="#000000"></path></g></g><g stroke-width="1"><path d="M341.65517,250.81353c4.71263,-0.20753 9.42526,-0.41505 15.13453,1.23149c5.70927,1.64654 12.41519,5.14716 17.8949,7.82698c5.47971,2.67983 9.73323,4.53886 13.10883,6.96672c3.3756,2.42785 5.87329,5.42452 8.0965,8.70658c2.22321,3.28206 4.17194,6.84952 6.01088,10.41389c1.83894,3.56437 3.56808,7.12566 5.53493,11.37908c1.96685,4.25342 4.17141,9.19898 5.64969,13.76107c1.47828,4.5621 2.23028,8.74073 4.09238,13.33406c1.8621,4.59332 4.8343,9.60134 5.6121,13.9093c0.7778,4.30797 -0.63879,7.91589 -1.90106,12.16849c-1.26227,4.2526 -2.3702,9.14988 -2.64391,14.59205c-0.27371,5.44218 0.28681,11.42926 -1.19302,14.9274c-1.47983,3.49814 -5,4.50733 -5.94903,8.21828c-0.94903,3.71095 0.67309,10.12364 -0.55528,14.67369c-1.22837,4.55005 -5.30723,7.23745 -8.96315,10.37558c-3.65592,3.13813 -6.8889,6.72699 -9.9688,9.61245c-3.0799,2.88546 -6.00673,5.06753 -9.40761,7.22888c-3.40088,2.16135 -7.27583,4.30199 -10.99851,7.3902c-3.72268,3.08821 -7.2931,7.12398 -12.42623,8.55135c-5.13313,1.42737 -11.82897,0.24632 -16.79689,-0.93387c-4.96791,-1.18019 -8.20789,-2.35953 -11.1379,-2.70104c-2.93001,-0.3415 -5.55004,0.15483 -9.64106,-0.99656c-4.09102,-1.15139 -9.65302,-3.9505 -14.69794,-7.40819c-5.04491,-3.45769 -9.57273,-7.57394 -13.30475,-11.24339c-3.73201,-3.66945 -6.66822,-6.8921 -7.8878,-9.11705c-1.21958,-2.22495 -0.72254,-3.4522 -2.99807,-8.01849c-2.27553,-4.56629 -7.32364,-12.47161 -9.26582,-17.7623c-1.94218,-5.29069 -0.77843,-7.96674 -1.10784,-11.57795c-0.32941,-3.61121 -2.15198,-8.15757 -2.30201,-13.00638c-0.15004,-4.84881 1.37246,-10.00006 1.02327,-11.89355c-0.34919,-1.89348 -2.57006,-0.5292 -2.2815,-2.02641c0.28855,-1.49721 3.08653,-5.85593 3.3993,-11.61101c0.31277,-5.75508 -1.85967,-12.90652 -1.31854,-17.6233c0.54113,-4.71679 3.79583,-6.99892 5.61719,-11.20785c1.82135,-4.20893 2.20936,-10.34467 4.08458,-14.83782c1.87522,-4.49315 5.23767,-7.34371 8.60011,-10.19427c3.36244,-2.85056 4.93505,-6.84488 6.50766,-10.8392" fill="none" stroke="#000000"></path><g><path d="M366.95571,418.22015c0.01429,-0.50066 0.56741,-1.05698 1.11216,-1.11509c0.54475,-0.05812 1.08112,0.38196 1.07031,0.88225c-0.01081,0.50029 -0.5688,1.06078 -1.12055,1.11966c-0.55175,0.05889 -1.0762,-0.38616 -1.06191,-0.88682z" fill="#000000" stroke="none"></path><path d="M340.07391,393.9422c-0.02585,-0.50916 0.31231,-1.04988 0.68231,-1.07799c0.37,-0.02811 0.77183,0.45637 0.80005,0.96535c0.02822,0.50898 -0.31718,1.04245 -0.69196,1.07089c-0.37478,0.02843 -0.76454,-0.44909 -0.79039,-0.95825z" fill="#000000" stroke="none"></path><path d="M360.27329,407.52656c-0.08883,-0.43183 0.38971,-0.92787 0.95873,-0.99391c0.56903,-0.06604 1.22854,0.29792 1.321,0.72933c0.09246,0.43141 -0.38213,0.93027 -0.95843,0.99718c-0.5763,0.0669 -1.23248,-0.30076 -1.32131,-0.73259z" fill="#000000" stroke="none"></path><path d="M350.18876,426.08325c0.06986,-0.52063 0.71692,-1.05015 1.30139,-1.07037c0.58446,-0.02022 1.10633,0.46886 1.04021,0.98936c-0.06612,0.5205 -0.72024,1.07242 -1.31224,1.09303c-0.59199,0.0206 -1.09922,-0.49139 -1.02936,-1.01202z" fill="#000000" stroke="none"></path><path d="M369.13581,396.15594c-0.08565,-0.4376 0.38272,-0.88629 0.94328,-0.88679c0.56056,-0.0005 1.21329,0.4472 1.30252,0.8848c0.08924,0.4376 -0.38503,0.8651 -0.9528,0.86548c-0.56777,0.00038 -1.20735,-0.42589 -1.29301,-0.8635z" fill="#000000" stroke="none"></path><path d="M333.38791,414.45577c0.05351,-0.39925 0.65479,-0.73574 1.20268,-0.68214c0.54789,0.0536 1.04238,0.4973 0.99237,0.89689c-0.05,0.39959 -0.6445,0.75507 -1.19937,0.70089c-0.55487,-0.05418 -1.04919,-0.51639 -0.99568,-0.91564z" fill="#000000" stroke="none"></path><path d="M353.2601,432.3752c0.09457,-0.52772 0.7558,-1.08748 1.32322,-1.12535c0.56742,-0.03786 1.04102,0.44617 0.95008,0.97365c-0.09094,0.52748 -0.74643,1.0984 -1.32108,1.13681c-0.57466,0.03841 -1.04678,-0.45739 -0.95222,-0.98511z" fill="#000000" stroke="none"></path><path d="M342.34208,389.25995c-0.04773,-0.57514 0.26393,-1.22197 0.63149,-1.28408c0.36756,-0.0621 0.79102,0.46052 0.8411,1.03526c0.05007,0.57475 -0.27324,1.20162 -0.64558,1.26441c-0.37233,0.06279 -0.77928,-0.44045 -0.82701,-1.01559z" fill="#000000" stroke="none"></path><path d="M363.59856,403.58443c-0.07699,-0.42777 0.41862,-0.91416 0.98882,-0.96463c0.5702,-0.05047 1.21499,0.33498 1.29563,0.76243c0.08063,0.42745 -0.4029,0.89689 -0.98034,0.94792c-0.57744,0.05102 -1.22712,-0.31794 -1.30411,-0.74571z" fill="#000000" stroke="none"></path><path d="M338.14106,421.76157c0.02459,-0.45329 0.6206,-0.85743 1.19685,-0.82038c0.57626,0.03705 1.13277,0.5153 1.11185,0.96883c-0.02091,0.45353 -0.61925,0.88234 -1.2029,0.84495c-0.58365,-0.03739 -1.1304,-0.54011 -1.10581,-0.9934z" fill="#000000" stroke="none"></path><path d="M356.30703,393.52756c-0.10384,-0.46223 0.3443,-0.99501 0.90596,-1.05509c0.56166,-0.06008 1.23685,0.35253 1.34428,0.81438c0.10743,0.46185 -0.35289,0.97294 -0.92182,1.03367c-0.56893,0.06073 -1.22458,-0.33073 -1.32842,-0.79296z" fill="#000000" stroke="none"></path><path d="M348.80505,410.97239c-0.05931,-0.42533 0.41907,-0.92369 0.96442,-1.0032c0.54535,-0.07951 1.15768,0.25983 1.22047,0.68466c0.06279,0.42483 -0.42395,0.93514 -0.97634,1.01573c-0.55239,0.0806 -1.14924,-0.27185 -1.20855,-0.69719z" fill="#000000" stroke="none"></path><path d="M337.1736,401.32443c0.01892,-0.43176 0.46973,-0.82484 0.90067,-0.79632c0.43094,0.02853 0.84202,0.47866 0.82586,0.91061c-0.01616,0.43194 -0.45958,0.8457 -0.896,0.81692c-0.43643,-0.02878 -0.84945,-0.49945 -0.83053,-0.93121z" fill="#000000" stroke="none"></path><path d="M357.4617,415.34677c-0.04006,-0.47466 0.47965,-1.01281 1.05099,-1.08299c0.57134,-0.07018 1.19432,0.32761 1.23803,0.80182c0.04371,0.47421 -0.49184,1.02483 -1.0706,1.09598c-0.57875,0.07115 -1.17837,-0.34016 -1.21843,-0.81481z" fill="#000000" stroke="none"></path><path d="M345.14897,434.40982c0.05924,-0.51391 0.6492,-0.99213 1.18462,-0.96229c0.53543,0.02984 1.01632,0.56773 0.96051,1.08183c-0.05582,0.51411 -0.64835,1.00443 -1.19065,0.97427c-0.5423,-0.03015 -1.01372,-0.5799 -0.95448,-1.09381z" fill="#000000" stroke="none"></path><path d="M341.2521,403.76377c-0.01008,-0.42893 0.42427,-0.87874 0.87313,-0.91075c0.44886,-0.03201 0.91224,0.35379 0.92518,0.78252c0.01294,0.42873 -0.42454,0.90038 -0.87917,0.93291c-0.45463,0.03254 -0.90907,-0.37576 -0.91914,-0.80469z" fill="#000000" stroke="none"></path><path d="M362.97828,417.33074c-0.00673,-0.49523 0.53975,-1.05115 1.10561,-1.11807c0.56586,-0.06692 1.15109,0.35517 1.16144,0.84998c0.01035,0.4948 -0.55418,1.06232 -1.1274,1.13016c-0.57321,0.06784 -1.13292,-0.36683 -1.13966,-0.86207z" fill="#000000" stroke="none"></path><path d="M348.39641,391.2347c-0.08563,-0.52139 0.28695,-1.13611 0.75942,-1.21446c0.47247,-0.07835 1.04482,0.37968 1.13347,0.90056c0.08865,0.52088 -0.30641,1.10463 -0.78505,1.18381c-0.47865,0.07918 -1.02221,-0.34853 -1.10784,-0.86992z" fill="#000000" stroke="none"></path><path d="M345.32178,409.71362c-0.58596,-4.23554 2.14618,-8.80404 5.76072,-9.332c3.61454,-0.52797 8.11149,2.98459 8.72054,7.21676c0.60905,4.23217 -2.66979,9.18394 -6.3337,9.7208c-3.6639,0.53686 -7.56162,-3.37002 -8.14757,-7.60556z" fill="#b5b5b5" stroke="#000000"></path><path d="M332.93767,409.45593c0.48303,-5.85929 3.29002,-11.40875 5.96833,-16.59932c2.67831,-5.19057 5.22794,-10.02224 9.57707,-10.64918c4.34912,-0.62694 10.49773,2.95086 15.4738,7.67049c4.97607,4.71963 8.77959,10.58108 9.58972,16.92c0.81013,6.33892 -1.37314,13.1553 -5.69406,18.74394c-4.32092,5.58865 -10.77949,9.94955 -16.43714,10.08492c-5.65765,0.13537 -10.51437,-3.95481 -13.82374,-9.02261c-3.30937,-5.0678 -5.13702,-11.28895 -4.65399,-17.14824z" fill="none" stroke="#000000"></path></g></g><g fill="none" stroke-width="0.5"><path d="M341.32043,250.05324c4.58791,0.00113 9.17582,0.00226 14.95759,1.61156c5.78177,1.6093 12.75739,4.82676 18.33904,7.27965c5.58165,2.45289 9.76934,4.14121 12.72852,7.07524c2.95918,2.93403 4.68985,7.11377 6.84446,10.86456c2.15461,3.75079 4.73316,7.07264 7.15099,9.98884c2.41783,2.91621 4.67494,5.42677 6.77343,9.62731c2.0985,4.20054 4.03838,10.09105 5.32168,14.80469c1.2833,4.71364 1.91002,8.25042 3.60783,13.13175c1.6978,4.88134 4.46669,11.10724 5.36375,15.56135c0.89706,4.45411 -0.0777,7.13644 -1.09403,10.29482c-1.01633,3.15838 -2.07423,6.79281 -2.45964,12.19206c-0.38541,5.39924 -0.09835,12.5633 -1.38472,16.99877c-1.28638,4.43547 -4.14619,6.14236 -4.94232,10.02641c-0.79613,3.88404 0.47144,9.94524 -1.24822,14.11827c-1.71966,4.17303 -6.42654,6.45788 -10.22463,9.25141c-3.79809,2.79353 -6.68738,6.09574 -9.42206,8.90953c-2.73468,2.81378 -5.31475,5.13914 -9.11582,7.30512c-3.80107,2.16598 -8.82314,4.17258 -12.58774,7.35867c-3.7646,3.18609 -6.27172,7.55166 -10.87064,8.86414c-4.59892,1.31248 -11.28965,-0.42813 -16.33957,-1.93122c-5.04992,-1.5031 -8.45902,-2.76868 -11.75282,-2.53064c-3.2938,0.23804 -6.47231,1.9797 -9.94999,0.8568c-3.47767,-1.1229 -7.25452,-5.11037 -12.45225,-9.04666c-5.19774,-3.93629 -11.81637,-7.82141 -16.51686,-10.76613c-4.70049,-2.94472 -7.48285,-4.94904 -7.65266,-7.1517c-0.16981,-2.20266 2.27293,-4.60366 -0.3,-9.74409c-2.57293,-5.14043 -10.16154,-13.02028 -12.36764,-18.34427c-2.2061,-5.32399 0.9703,-8.09213 1.6367,-11.58269c0.66639,-3.49056 -1.17723,-7.70354 -2.04562,-12.25684c-0.86839,-4.55331 -0.76154,-9.44694 -1.55929,-10.98557c-0.79775,-1.53863 -2.50011,0.27773 -1.43638,-1.37642c1.06373,-1.65415 4.89354,-6.77881 5.22515,-12.38342c0.3316,-5.60461 -2.83501,-11.68916 -2.67845,-16.88352c0.15656,-5.19436 3.63628,-9.49852 5.28186,-13.92384c1.64558,-4.42533 1.45701,-8.97182 3.23065,-12.9268c1.77363,-3.95498 5.50947,-7.31845 9.2453,-10.68192c3.73583,-3.36347 5.71764,-6.14704 7.69944,-8.93062" stroke="#000000"></path><g><path d="M365.24502,417.96703c-0.17137,-0.50896 0.38546,-1.23054 1.10459,-1.47121c0.71913,-0.24067 1.60058,-0.00044 1.77654,0.50698c0.17596,0.50742 -0.35355,1.28203 -1.08175,1.52608c-0.7282,0.24405 -1.62801,-0.0529 -1.79938,-0.56186z" stroke="none"></path><path d="M341.45864,393.10138c-0.07455,-0.38164 0.02962,-0.69168 0.218,-0.68869c0.18838,0.00298 0.46098,0.31899 0.53673,0.70065c0.07575,0.38166 -0.04534,0.82896 -0.23623,0.8267c-0.19089,-0.00226 -0.44396,-0.45702 -0.51851,-0.83866z" stroke="none"></path><path d="M360.73726,406.74677c-0.18246,-0.4657 0.31637,-1.15406 1.09837,-1.34151c0.782,-0.18745 1.84717,0.12602 2.03463,0.59052c0.18746,0.4645 -0.50281,1.08004 -1.29589,1.26948c-0.79308,0.18944 -1.65464,-0.0528 -1.8371,-0.51849z" stroke="none"></path><path d="M351.25374,425.53091c0.25113,-0.31887 0.89207,-0.63087 1.37282,-0.74595c0.48075,-0.11508 0.8013,-0.03325 0.55324,0.28488c-0.24806,0.31813 -1.06472,0.87257 -1.5526,0.99047c-0.48788,0.1179 -0.62459,-0.21054 -0.37346,-0.52941z" stroke="none"></path><path d="M370.30061,394.14839c0.01308,-0.57617 0.73763,-0.85627 1.50917,-0.63182c0.77154,0.22446 1.59008,0.95347 1.58193,1.53108c-0.00815,0.57761 -0.84299,1.00381 -1.62504,0.77728c-0.78204,-0.22652 -1.47914,-1.10037 -1.46606,-1.67655z" stroke="none"></path><path d="M332.99384,413.07967c-0.03972,-0.33218 0.36493,-0.31185 0.87511,0.04625c0.51018,0.3581 1.12588,1.05399 1.16886,1.38845c0.04298,0.33447 -0.48676,0.30751 -1.00417,-0.05522c-0.51741,-0.36273 -1.00008,-1.04731 -1.0398,-1.37949z" stroke="none"></path><path d="M351.15735,431.38637c0.10836,-0.55642 0.86608,-1.4293 1.45321,-1.54143c0.58713,-0.11212 1.00366,0.53651 0.89905,1.09221c-0.10461,0.55571 -0.73036,1.01849 -1.32428,1.12978c-0.59392,0.11128 -1.13634,-0.12414 -1.02798,-0.68057z" stroke="none"></path><path d="M342.07188,390.35364c0.0066,-0.46004 0.15685,-1.00869 0.28694,-1.03179c0.13009,-0.0231 0.24004,0.47933 0.23427,0.93923c-0.00577,0.45989 -0.12726,0.87724 -0.25886,0.89991c-0.1316,0.02267 -0.26895,-0.3473 -0.26234,-0.80734z" stroke="none"></path><path d="M362.76559,402.39355c-0.34363,-0.4409 -0.12467,-1.01603 0.35567,-1.01903c0.48034,-0.003 1.22207,0.56613 1.56877,1.00701c0.3467,0.44088 0.29837,0.75352 -0.18718,0.7551c-0.48555,0.00158 -1.39363,-0.30218 -1.73726,-0.74309z" stroke="none"></path><path d="M337.02667,421.69486c0.19592,-0.5376 0.8747,-1.11774 1.40018,-1.26224c0.52548,-0.1445 0.89766,0.14662 0.70509,0.6833c-0.19256,0.53668 -0.94987,1.31891 -1.48252,1.46639c-0.53265,0.14748 -0.81867,-0.34984 -0.62275,-0.88745z" stroke="none"></path><path d="M355.74135,393.69382c-0.1872,-0.58912 0.07711,-1.21361 0.59005,-1.33935c0.51294,-0.12574 1.27451,0.24727 1.46499,0.83559c0.19048,0.58832 -0.19014,1.39195 -0.7103,1.5203c-0.52016,0.12835 -1.15754,-0.42741 -1.34474,-1.01654z" stroke="none"></path><path d="M348.84184,410.16514c0.15532,-0.27277 0.64565,-0.42226 1.02105,-0.26626c0.3754,0.15599 0.63587,0.61746 0.48295,0.89122c-0.15292,0.27376 -0.71923,0.35982 -1.09986,0.20147c-0.38063,-0.15834 -0.55946,-0.55367 -0.40414,-0.82643z" stroke="none"></path><path d="M337.9239,402.57281c0.20892,-0.55566 0.60361,-1.0868 0.81602,-1.05775c0.2124,0.02905 0.24251,0.61828 0.03495,1.17413c-0.20756,0.55585 -0.65279,1.07832 -0.86819,1.04885c-0.21541,-0.02947 -0.19169,-0.60956 0.01723,-1.16522z" stroke="none"></path><path d="M354.35461,416.26859c-0.06458,-0.3557 0.70858,-0.73877 1.41381,-0.7666c0.70523,-0.02783 1.34252,0.29957 1.4116,0.65509c0.06908,0.35552 -0.43005,0.73917 -1.14279,0.76736c-0.71274,0.02819 -1.61805,-0.30015 -1.68262,-0.65585z" stroke="none"></path><path d="M343.23803,434.85538c0.10215,-0.21992 0.55045,-0.41583 0.9143,-0.422c0.36385,-0.00617 0.64325,0.17739 0.54343,0.39727c-0.09982,0.21988 -0.57887,0.47607 -0.94755,0.48266c-0.36869,0.00659 -0.61233,-0.23801 -0.51018,-0.45793z" stroke="none"></path><path d="M339.77814,405.30752c-0.082,-0.37423 0.293,-0.90481 0.72996,-1.04173c0.43696,-0.13691 0.93589,0.11985 1.02068,0.4932c0.08479,0.37335 -0.24454,0.86331 -0.68685,1.00175c-0.44231,0.13844 -0.98179,-0.07899 -1.06379,-0.45322z" stroke="none"></path><path d="M360.75599,418.60044c-0.05455,-0.48496 0.49664,-1.05075 1.04609,-1.26488c0.54946,-0.21413 1.09717,-0.0766 1.15524,0.40699c0.05806,0.48359 -0.37353,1.31324 -0.92936,1.53158c-0.55583,0.21834 -1.21742,-0.18873 -1.27197,-0.67369z" stroke="none"></path><path d="M347.02913,391.36177c-0.13384,-0.55082 0.40809,-1.29868 1.05218,-1.57252c0.64409,-0.27384 1.39033,-0.07366 1.52829,0.47542c0.13796,0.54907 -0.33237,1.44704 -0.98431,1.72522c-0.65195,0.27818 -1.46232,-0.07729 -1.59616,-0.62812z" stroke="none"></path><path d="M346.78843,408.36671c0.35512,-4.05582 2.29188,-7.19601 5.61649,-7.5384c3.3246,-0.34238 8.03704,2.11304 7.70316,6.16667c-0.33387,4.05363 -5.71406,9.70546 -9.1004,10.06618c-3.38634,0.36072 -4.57437,-4.63865 -4.21925,-8.69446z" stroke="#000000"></path><path d="M331.43548,408.2691c1.06581,-6.12498 6.51892,-11.07527 9.18269,-15.87006c2.66377,-4.79479 2.53818,-9.43409 6.56347,-10.5522c4.02528,-1.11811 12.20144,1.28496 17.13683,5.9166c4.9354,4.63163 6.63004,11.49183 7.91702,18.27869c1.28698,6.78687 2.16628,13.50041 -2.23684,18.87319c-4.40312,5.37278 -14.08867,9.40481 -20.48135,9.84951c-6.39268,0.4447 -9.49248,-2.69792 -12.6385,-7.86535c-3.14603,-5.16743 -6.50912,-12.50541 -5.44332,-18.63039z" stroke="#000000"></path></g></g><path d="M0,700v-700h500v700z" fill="none" stroke="#000000" stroke-width="1"></path></g></svg>